<svg xmlns="http://www.w3.org/2000/svg" data-name="Layer 1" viewBox="0 0 64 64" id="add-friend"><path d="M24.76 28.1A10.35 10.35 0 1 1 35.1 17.75 10.36 10.36 0 0 1 24.76 28.1zm0-16.69a6.35 6.35 0 1 0 6.34 6.34 6.35 6.35 0 0 0-6.34-6.34zm0 45.18a28.11 28.11 0 0 1-16.4-5.22 2 2 0 0 1-.83-1.43v-.82a17.26 17.26 0 1 1 34.51 0 7.31 7.31 0 0 1 0 .81 2 2 0 0 1-.83 1.44c-.68.48-1.39.94-2.1 1.36a2 2 0 1 1-2-3.45c.33-.2.66-.4 1-.61a13.25 13.25 0 0 0-26.49 0 24.13 24.13 0 0 0 13.25 3.92 24.87 24.87 0 0 0 3.67-.27 2 2 0 0 1 .61 4 27.84 27.84 0 0 1-4.39.27zm23.09-26.05a2 2 0 0 1-2-2v-13.3a2 2 0 0 1 4 0v13.3a2 2 0 0 1-2 2z"></path><path d="M54.5 23.89H41.2a2 2 0 0 1 0-4h13.3a2 2 0 0 1 0 4Z"></path></svg>